<svg width="31" height="31" viewBox="0 0 31 31" fill="none" xmlns="http://www.w3.org/2000/svg">
<g clip-path="url(#clip0_148_88)">
<path d="M15.5 0.484375C23.7949 0.484375 30.5156 7.20508 30.5156 15.5C30.5156 23.7949 23.7949 30.5156 15.5 30.5156C7.20508 30.5156 0.484375 23.7949 0.484375 15.5C0.484375 7.20508 7.20508 0.484375 15.5 0.484375ZM8.47656 18.1641H15.5V22.4568C15.5 23.1047 16.2871 23.4316 16.7412 22.9715L23.6617 16.0146C23.9463 15.7301 23.9463 15.276 23.6617 14.9914L16.7412 8.02852C16.2811 7.56836 15.5 7.89531 15.5 8.54316V12.8359H8.47656C8.07695 12.8359 7.75 13.1629 7.75 13.5625V17.4375C7.75 17.8371 8.07695 18.1641 8.47656 18.1641Z" fill="#234F37"/>
</g>
<defs>
<clipPath id="clip0_148_88">
<rect width="31" height="31" fill="white"/>
</clipPath>
</defs>
</svg>
