<svg width="7" height="12" viewBox="0 0 7 12" fill="none" xmlns="http://www.w3.org/2000/svg">
<path d="M4.47631 0.364871C4.30264 0.239306 4.08193 0.3577 4.08346 0.570004C4.08507 1.54286 3.5959 2.43232 2.73684 2.9283L1.65284 3.55415C0.216547 4.38339 -0.275965 6.22147 0.55328 7.65776C0.608041 7.75261 0.671296 7.83714 0.733978 7.9238C1.24095 6.80546 2.18536 5.55922 3.95499 4.53752C4.07423 4.46868 4.22811 4.50992 4.29696 4.62915C4.3658 4.74839 4.32456 4.90228 4.20533 4.97112C0.798869 6.93784 0.55998 9.85982 0.693156 10.829C0.731242 11.1015 0.982441 11.2925 1.25572 11.2558C1.53114 11.2196 1.72136 10.9671 1.68677 10.6943C1.67893 10.6338 1.59524 9.8818 1.95224 8.90424C2.73469 9.24562 3.89715 9.33146 4.92607 8.58205C6.96422 7.19935 7.36001 4.42707 6.01131 2.09107C5.61859 1.41086 5.06545 0.790751 4.47631 0.364871Z" fill="#38B671"/>
</svg>
