<svg width="337" height="375" viewBox="0 0 337 375" fill="none" xmlns="http://www.w3.org/2000/svg">
<path d="M218.463 52.2701C214.519 47.9158 207.927 49.8367 206.762 55.5391C201.277 81.6391 183.104 102.713 157.246 111.133L124.618 121.758C81.3867 135.835 57.7332 182.332 71.8107 225.563C72.7403 228.418 73.9564 231.045 75.145 233.725C95.0963 206.613 127.506 178.557 180.771 161.213C184.36 160.044 188.253 162.025 189.421 165.614C190.59 169.203 188.61 173.095 185.021 174.264C82.488 207.652 59.477 284.658 57.5413 311.406C57.0143 318.931 62.6657 325.481 70.2034 326.049C77.7952 326.644 84.3319 320.952 84.9538 313.442C85.0875 311.774 87.1164 291.13 102.246 266.942C121.29 280.544 151.978 289.452 183.831 275.2C246.349 249.7 272.717 177.6 249.821 107.287C243.154 86.8133 231.843 67.0395 218.463 52.2701Z" fill="#38B671" fill-opacity="0.25"/>
</svg>
