<svg width="105" height="128" viewBox="0 0 105 128" fill="none" xmlns="http://www.w3.org/2000/svg">
<path d="M85.3109 2.10602C84.5246 1.53751 83.5253 2.07355 83.5322 3.03479C83.5395 7.43954 81.3248 11.4667 77.4352 13.7123L72.5273 16.5459C66.0243 20.3004 63.7943 28.6226 67.5489 35.1256C67.7968 35.5551 68.0832 35.9378 68.367 36.3302C70.6624 31.2667 74.9384 25.6242 82.9506 20.9983C83.4905 20.6866 84.1872 20.8733 84.4989 21.4132C84.8106 21.9531 84.6239 22.6498 84.084 22.9615C68.6608 31.8661 67.5792 45.0958 68.1822 49.4838C68.3546 50.7176 69.4919 51.5824 70.7293 51.4161C71.9762 51.2524 72.8375 50.1089 72.6809 48.8742C72.6454 48.6002 72.2665 45.1953 73.8829 40.7693C77.4255 42.3149 82.6887 42.7035 87.3473 39.3105C96.5753 33.0501 98.3673 20.4982 92.2609 9.92162C90.4828 6.84188 87.9784 4.03425 85.3109 2.10602Z" fill="#45BB7B"/>
<path fill-rule="evenodd" clip-rule="evenodd" d="M43.5035 28.8091C44.9131 27.7103 46.887 27.7103 48.2966 28.8091L89.4971 60.9237C90.4479 61.6649 91.0041 62.8045 91.0041 64.0117V114.478C91.0041 117.949 89.6282 121.278 87.1791 123.732C84.73 126.186 81.4084 127.565 77.9448 127.565H13.8553C10.3917 127.565 7.07006 126.186 4.62098 123.732C2.1719 121.278 0.796021 117.949 0.796021 114.478V64.0117C0.796021 62.8045 1.35217 61.6649 2.30303 60.9237L43.5035 28.8091ZM8.60317 65.9251V114.478C8.60317 115.874 9.15651 117.212 10.1415 118.2C11.1264 119.187 12.4623 119.741 13.8553 119.741H77.9448C79.3378 119.741 80.6737 119.187 81.6586 118.2C82.6436 117.212 83.1969 115.874 83.1969 114.478V65.9251L45.9 36.8532L8.60317 65.9251Z" fill="#B9DFCA"/>
<path fill-rule="evenodd" clip-rule="evenodd" d="M28.327 77.6006C28.327 75.4324 30.0684 73.6748 32.2164 73.6748H59.5836C61.7317 73.6748 63.473 75.4324 63.473 77.6006V123.64C63.473 125.808 61.7317 127.565 59.5836 127.565C57.4356 127.565 55.6942 125.808 55.6942 123.64V81.5264H36.1058V123.64C36.1058 125.808 34.3645 127.565 32.2164 127.565C30.0684 127.565 28.327 125.808 28.327 123.64V77.6006Z" fill="#B9DFCA"/>
</svg>
