<svg width="187" height="187" viewBox="0 0 187 187" fill="none" xmlns="http://www.w3.org/2000/svg">
<circle cx="93.5" cy="93.5" r="93.5" fill="#1E1E1E"/>
<path d="M126.515 22.652C125.729 22.0835 124.729 22.6196 124.736 23.5808C124.743 27.9856 122.529 32.0127 118.639 34.2583L113.731 37.0919C107.228 40.8465 104.998 49.1686 108.753 55.6717C109.001 56.1011 109.287 56.4838 109.571 56.8762C111.866 51.8127 116.142 46.1702 124.154 41.5443C124.694 41.2326 125.391 41.4193 125.703 41.9592C126.015 42.4991 125.828 43.1958 125.288 43.5075C109.865 52.4121 108.783 65.6418 109.386 70.0298C109.559 71.2636 110.696 72.1284 111.933 71.9621C113.18 71.7984 114.041 70.6549 113.885 69.4202C113.849 69.1462 113.47 65.7413 115.087 61.3153C118.629 62.8609 123.893 63.2496 128.551 59.8565C137.779 53.5962 139.571 41.0443 133.465 30.4676C131.687 27.3879 129.182 24.5803 126.515 22.652Z" fill="#45BB7B"/>
<path fill-rule="evenodd" clip-rule="evenodd" d="M84.7075 49.3551C86.1171 48.2563 88.091 48.2563 89.5006 49.3551L130.701 81.4698C131.652 82.2109 132.208 83.3505 132.208 84.5578V135.024C132.208 138.495 130.832 141.824 128.383 144.278C125.934 146.732 122.612 148.111 119.149 148.111H55.0592C51.5957 148.111 48.274 146.732 45.825 144.278C43.3759 141.824 42 138.495 42 135.024V84.5578C42 83.3505 42.5562 82.2109 43.507 81.4698L84.7075 49.3551ZM49.8071 86.4711V135.024C49.8071 136.42 50.3605 137.758 51.3454 138.746C52.3304 139.733 53.6663 140.287 55.0592 140.287H119.149C120.542 140.287 121.878 139.733 122.863 138.746C123.848 137.758 124.401 136.42 124.401 135.024V86.4711L87.104 57.3992L49.8071 86.4711Z" fill="#B9DFCA"/>
<path fill-rule="evenodd" clip-rule="evenodd" d="M69.531 98.1466C69.531 95.9785 71.2723 94.2208 73.4204 94.2208H100.788C102.936 94.2208 104.677 95.9785 104.677 98.1466V144.186C104.677 146.354 102.936 148.111 100.788 148.111C98.6396 148.111 96.8982 146.354 96.8982 144.186V102.072H77.3098V144.186C77.3098 146.354 75.5685 148.111 73.4204 148.111C71.2723 148.111 69.531 146.354 69.531 144.186V98.1466Z" fill="#B9DFCA"/>
</svg>
