<svg width="76" height="42" viewBox="0 0 76 42" fill="none" xmlns="http://www.w3.org/2000/svg">
<path d="M64.0189 25.5595C64.7639 25.5595 65.3635 25.783 65.818 26.23C66.2798 26.677 66.5108 27.34 66.5108 28.219V31.6608H64.7676V28.4872C64.7676 28.0105 64.6633 27.6566 64.4547 27.4257C64.2461 27.1873 63.9444 27.0681 63.5496 27.0681C63.11 27.0681 62.7599 27.2059 62.4992 27.4815C62.2384 27.7497 62.1081 28.152 62.1081 28.6884V31.6608H60.3649V25.6489H62.0299V26.3529C62.2608 26.0996 62.5476 25.9059 62.8903 25.7719C63.233 25.6303 63.6092 25.5595 64.0189 25.5595Z" fill="#38B671"/>
<path d="M56.3437 30.3534C56.6566 30.3534 56.9322 30.3087 57.1706 30.2193C57.4164 30.1224 57.6437 29.9734 57.8522 29.7723L58.7797 30.778C58.2135 31.4261 57.3866 31.7501 56.299 31.7501C55.6211 31.7501 55.0214 31.6198 54.4999 31.359C53.9785 31.0909 53.5762 30.7221 53.2931 30.2528C53.01 29.7835 52.8685 29.2508 52.8685 28.6548C52.8685 28.0663 53.0063 27.5374 53.2819 27.0681C53.565 26.5913 53.9487 26.2226 54.4329 25.9618C54.9246 25.6936 55.4758 25.5595 56.0867 25.5595C56.6603 25.5595 57.1818 25.6825 57.6511 25.9283C58.1204 26.1667 58.4929 26.5168 58.7685 26.9787C59.0516 27.4331 59.1932 27.9732 59.1932 28.599L54.7458 29.4594C54.8724 29.7574 55.0698 29.9809 55.338 30.1299C55.6136 30.2789 55.9489 30.3534 56.3437 30.3534ZM56.0867 26.8781C55.6472 26.8781 55.2896 27.0197 55.0139 27.3027C54.7383 27.5858 54.593 27.9769 54.5781 28.4761L57.5058 27.9062C57.4239 27.5933 57.2563 27.3437 57.003 27.1575C56.7497 26.9712 56.4443 26.8781 56.0867 26.8781Z" fill="#38B671"/>
<path d="M49.2942 30.3534C49.6071 30.3534 49.8827 30.3087 50.1211 30.2193C50.3669 30.1224 50.5942 29.9734 50.8027 29.7723L51.7302 30.778C51.164 31.4261 50.3371 31.7501 49.2495 31.7501C48.5716 31.7501 47.9719 31.6198 47.4504 31.359C46.929 31.0909 46.5267 30.7221 46.2436 30.2528C45.9605 29.7835 45.819 29.2508 45.819 28.6548C45.819 28.0663 45.9568 27.5374 46.2324 27.0681C46.5155 26.5913 46.8992 26.2226 47.3834 25.9618C47.8751 25.6936 48.4263 25.5595 49.0372 25.5595C49.6108 25.5595 50.1323 25.6825 50.6016 25.9283C51.0709 26.1667 51.4434 26.5168 51.719 26.9787C52.0021 27.4331 52.1437 27.9732 52.1437 28.599L47.6963 29.4594C47.8229 29.7574 48.0203 29.9809 48.2885 30.1299C48.5641 30.2789 48.8994 30.3534 49.2942 30.3534ZM49.0372 26.8781C48.5977 26.8781 48.2401 27.0197 47.9645 27.3027C47.6888 27.5858 47.5435 27.9769 47.5286 28.4761L50.4563 27.9062C50.3744 27.5933 50.2068 27.3437 49.9535 27.1575C49.7002 26.9712 49.3948 26.8781 49.0372 26.8781Z" fill="#38B671"/>
<path d="M43.2167 26.4423C43.4253 26.1518 43.7047 25.932 44.0548 25.783C44.4124 25.634 44.8221 25.5595 45.284 25.5595V27.1687C45.0903 27.1538 44.9599 27.1463 44.8929 27.1463C44.3938 27.1463 44.0027 27.2878 43.7196 27.5709C43.4365 27.8466 43.295 28.2637 43.295 28.8225V31.6608H41.5518V25.6489H43.2167V26.4423Z" fill="#38B671"/>
<path d="M38.3393 27.6268H39.9931V31.6608H38.6298V31.1914C38.086 31.5937 37.3857 31.7948 36.529 31.7948C35.8064 31.7948 35.1434 31.6384 34.54 31.3255C33.9366 31.0126 33.4561 30.5582 33.0985 29.9622C32.7409 29.3588 32.5621 28.6437 32.5621 27.8168C32.5621 27.0197 32.7446 26.3119 33.1097 25.6936C33.4822 25.0679 33.9962 24.5799 34.6517 24.2298C35.3073 23.8797 36.0448 23.7046 36.8643 23.7046C37.5496 23.7046 38.1717 23.8201 38.7304 24.051C39.2891 24.2819 39.7584 24.6172 40.1384 25.0567L38.9762 26.1294C38.4175 25.5409 37.7433 25.2467 36.9537 25.2467C36.4545 25.2467 36.0113 25.3547 35.6239 25.5707C35.2365 25.7793 34.9348 26.0773 34.7188 26.4647C34.5028 26.852 34.3947 27.299 34.3947 27.8056C34.3947 28.3345 34.499 28.7852 34.7076 29.1577C34.9237 29.5302 35.2105 29.8133 35.568 30.0069C35.9256 30.1932 36.3167 30.2863 36.7414 30.2863C37.3746 30.2863 37.9072 30.1075 38.3393 29.7499V27.6268Z" fill="#38B671"/>
<path d="M72.9441 41.7605C72.445 41.7605 71.957 41.7009 71.4802 41.5817C71.0035 41.4551 70.6235 41.2986 70.3405 41.1124L70.9215 39.8609C71.1897 40.0322 71.5138 40.1738 71.8937 40.2855C72.2736 40.3898 72.6461 40.4419 73.0111 40.4419C73.7486 40.4419 74.1174 40.2594 74.1174 39.8944C74.1174 39.7231 74.0168 39.6001 73.8157 39.5256C73.6145 39.4512 73.3054 39.3878 72.8882 39.3357C72.3965 39.2612 71.9905 39.1755 71.6702 39.0787C71.3499 38.9818 71.0705 38.8105 70.8321 38.5647C70.6012 38.3188 70.4857 37.9687 70.4857 37.5143C70.4857 37.1343 70.5937 36.7991 70.8098 36.5086C71.0333 36.2106 71.3536 35.9796 71.7708 35.8158C72.1954 35.6519 72.6945 35.5699 73.2681 35.5699C73.6928 35.5699 74.1137 35.6183 74.5308 35.7152C74.9555 35.8046 75.3056 35.9312 75.5812 36.0951L75.0002 37.3355C74.4712 37.0375 73.8939 36.8885 73.2681 36.8885C72.8957 36.8885 72.6163 36.9406 72.4301 37.0449C72.2438 37.1492 72.1507 37.2833 72.1507 37.4472C72.1507 37.6335 72.2513 37.7638 72.4524 37.8383C72.6535 37.9128 72.9739 37.9836 73.4134 38.0506C73.9051 38.1326 74.3074 38.222 74.6202 38.3188C74.9331 38.4082 75.205 38.5758 75.436 38.8217C75.6669 39.0675 75.7824 39.4102 75.7824 39.8497C75.7824 40.2222 75.6706 40.5537 75.4471 40.8442C75.2237 41.1348 74.8959 41.362 74.4638 41.5259C74.0392 41.6823 73.5326 41.7605 72.9441 41.7605Z" fill="#234F37"/>
<path d="M66.491 40.3637C66.8039 40.3637 67.0795 40.319 67.3179 40.2296C67.5637 40.1328 67.7909 39.9838 67.9995 39.7827L68.927 40.7884C68.3608 41.4365 67.5339 41.7605 66.4463 41.7605C65.7684 41.7605 65.1687 41.6302 64.6472 41.3694C64.1257 41.1012 63.7235 40.7325 63.4404 40.2632C63.1573 39.7938 63.0157 39.2612 63.0157 38.6652C63.0157 38.0767 63.1536 37.5478 63.4292 37.0785C63.7123 36.6017 64.0959 36.2329 64.5802 35.9722C65.0718 35.704 65.6231 35.5699 66.234 35.5699C66.8076 35.5699 67.3291 35.6928 67.7984 35.9387C68.2677 36.1771 68.6402 36.5272 68.9158 36.9891C69.1989 37.4435 69.3404 37.9836 69.3404 38.6093L64.893 39.4698C65.0197 39.7678 65.2171 39.9912 65.4853 40.1402C65.7609 40.2892 66.0962 40.3637 66.491 40.3637ZM66.234 36.8885C65.7944 36.8885 65.4369 37.03 65.1612 37.3131C64.8856 37.5962 64.7403 37.9873 64.7254 38.4864L67.6531 37.9165C67.5712 37.6037 67.4036 37.3541 67.1503 37.1679C66.897 36.9816 66.5915 36.8885 66.234 36.8885Z" fill="#234F37"/>
<path d="M59.5574 35.5699C60.3098 35.5699 60.9057 35.7934 61.3453 36.2404C61.7922 36.6799 62.0157 37.3429 62.0157 38.2294V41.6711H60.2725V38.4976C60.2725 38.0208 60.172 37.667 59.9708 37.436C59.7771 37.1977 59.4978 37.0785 59.1327 37.0785C58.723 37.0785 58.399 37.2125 58.1606 37.4807C57.9222 37.7415 57.803 38.1326 57.803 38.654V41.6711H56.0598V38.4976C56.0598 37.5515 55.6799 37.0785 54.92 37.0785C54.5177 37.0785 54.1974 37.2125 53.959 37.4807C53.7206 37.7415 53.6014 38.1326 53.6014 38.654V41.6711H51.8582V35.6593H53.5232V36.3521C53.7467 36.0988 54.0186 35.9051 54.3389 35.7711C54.6667 35.637 55.0243 35.5699 55.4117 35.5699C55.8363 35.5699 56.2199 35.6556 56.5626 35.8269C56.9053 35.9908 57.1809 36.2329 57.3895 36.5533C57.6354 36.2404 57.9445 35.9983 58.317 35.8269C58.6969 35.6556 59.1104 35.5699 59.5574 35.5699Z" fill="#234F37"/>
<path d="M47.5618 41.7605C46.9286 41.7605 46.3587 41.6302 45.8521 41.3694C45.353 41.1012 44.9619 40.7325 44.6788 40.2632C44.3957 39.7938 44.2542 39.2612 44.2542 38.6652C44.2542 38.0693 44.3957 37.5366 44.6788 37.0673C44.9619 36.598 45.353 36.2329 45.8521 35.9722C46.3587 35.704 46.9286 35.5699 47.5618 35.5699C48.195 35.5699 48.7612 35.704 49.2603 35.9722C49.7594 36.2329 50.1505 36.598 50.4336 37.0673C50.7167 37.5366 50.8582 38.0693 50.8582 38.6652C50.8582 39.2612 50.7167 39.7938 50.4336 40.2632C50.1505 40.7325 49.7594 41.1012 49.2603 41.3694C48.7612 41.6302 48.195 41.7605 47.5618 41.7605ZM47.5618 40.3302C48.0087 40.3302 48.3738 40.1812 48.6569 39.8832C48.9474 39.5778 49.0927 39.1718 49.0927 38.6652C49.0927 38.1586 48.9474 37.7564 48.6569 37.4584C48.3738 37.153 48.0087 37.0002 47.5618 37.0002C47.1148 37.0002 46.746 37.153 46.4555 37.4584C46.165 37.7564 46.0197 38.1586 46.0197 38.6652C46.0197 39.1718 46.165 39.5778 46.4555 39.8832C46.746 40.1812 47.1148 40.3302 47.5618 40.3302Z" fill="#234F37"/>
<path d="M43.2542 33.8491V41.6711H41.4439V38.4641H37.8905V41.6711H36.0802V33.8491H37.8905V36.9332H41.4439V33.8491H43.2542Z" fill="#234F37"/>
<path d="M27.7661 0.54273C27.5078 0.355953 27.1795 0.532062 27.1818 0.847862C27.1842 2.29498 26.4565 3.61804 25.1787 4.3558L23.5663 5.28674C21.4298 6.52023 20.6972 9.25436 21.9307 11.3908C22.0121 11.5319 22.1062 11.6576 22.1995 11.7866C22.9536 10.123 24.3584 8.26926 26.9907 6.74951C27.168 6.6471 27.3969 6.70844 27.4993 6.88581C27.6017 7.06317 27.5404 7.29208 27.363 7.39448C22.296 10.32 21.9406 14.6664 22.1387 16.108C22.1954 16.5133 22.569 16.7975 22.9755 16.7428C23.3852 16.689 23.6682 16.3134 23.6167 15.9077C23.6051 15.8177 23.4806 14.6991 24.0116 13.245C25.1755 13.7527 26.9046 13.8804 28.4351 12.7657C31.4669 10.709 32.0556 6.58521 30.0494 3.11042C29.4653 2.09862 28.6425 1.17622 27.7661 0.54273Z" fill="#38B671"/>
<path fill-rule="evenodd" clip-rule="evenodd" d="M14.0309 9.31563C14.494 8.95465 15.1425 8.95465 15.6056 9.31563L29.1414 19.8664C29.4538 20.1099 29.6365 20.4843 29.6365 20.8809V37.4607C29.6365 38.6011 29.1845 39.6948 28.3799 40.5011C27.5753 41.3075 26.484 41.7605 25.3461 41.7605H4.29041C3.15253 41.7605 2.06124 41.3075 1.25663 40.5011C0.452024 39.6948 0 38.6011 0 37.4607V20.8809C0 20.4843 0.182716 20.1099 0.495106 19.8664L14.0309 9.31563ZM2.56492 21.5095V37.4607C2.56492 37.9194 2.74671 38.3592 3.07031 38.6835C3.3939 39.0078 3.83279 39.19 4.29041 39.19H25.3461C25.8037 39.19 26.2426 39.0078 26.5662 38.6835C26.8898 38.3592 27.0716 37.9194 27.0716 37.4607V21.5095L14.8183 11.9584L2.56492 21.5095Z" fill="#234F37"/>
<path fill-rule="evenodd" clip-rule="evenodd" d="M9.04492 25.3454C9.04492 24.633 9.61701 24.0556 10.3227 24.0556H19.3138C20.0195 24.0556 20.5916 24.633 20.5916 25.3454V40.4708C20.5916 41.1831 20.0195 41.7605 19.3138 41.7605C18.6081 41.7605 18.036 41.1831 18.036 40.4708V26.6351H11.6005V40.4708C11.6005 41.1831 11.0284 41.7605 10.3227 41.7605C9.61701 41.7605 9.04492 41.1831 9.04492 40.4708V25.3454Z" fill="#234F37"/>
</svg>
